<?xml version="1.0"?>
<svg xmlns="http://www.w3.org/2000/svg" xmlns:xlink="http://www.w3.org/1999/xlink" xmlns:svgjs="http://svgjs.com/svgjs" version="1.1" width="512" height="512" x="0" y="0" viewBox="0 0 512 512" style="enable-background:new 0 0 512 512" xml:space="preserve" class=""><g><path xmlns="http://www.w3.org/2000/svg" d="m243 201h-40c-11.046 0-20-8.954-20-20s8.954-20 20-20h40c11.046 0 20 8.954 20 20s-8.954 20-20 20zm-33.629 275.572c23.621-23.297 36.629-54.398 36.629-87.572 0-23.073-6.438-45.574-18.616-65.072-2.868-4.591-4.384-9.987-4.384-15.605v-27.323h20c11.046 0 20-8.954 20-20s-8.954-20-20-20h-20c-22.056 0-40 17.944-40 40v27.322c0 13.12 3.617 25.845 10.459 36.798 8.204 13.135 12.541 28.309 12.541 43.88 0 22.386-8.778 43.373-24.718 59.095-15.657 15.443-36.312 23.905-58.28 23.905-.392 0-.784-.002-1.177-.008-44.303-.609-81.003-37.141-81.811-81.435-.295-16.116 4.027-31.813 12.498-45.393 6.861-10.996 10.488-23.736 10.488-36.841v-207.319c0-32.827 27.267-60.763 59.541-61.003.151-.001.298-.001.449-.001 28.445 0 53.136 20.101 58.804 47.948 3.78 18.572 20.265 32.052 39.195 32.052h22.011c11.046 0 20-8.954 20-20s-8.954-20-20-20l-22.011-.03c-9.454-46.448-50.597-79.97-97.998-79.97-.247 0-.499.001-.746.003-26.442.196-51.387 10.949-70.243 30.278-18.702 19.173-29.002 44.289-29.002 70.723v207.319c0 5.611-1.53 11.03-4.426 15.671-12.573 20.158-18.989 43.427-18.553 67.294.583 31.967 13.472 62.082 36.292 84.797 22.818 22.713 52.992 35.464 84.963 35.903.583.008 1.161.012 1.744.012 32.542-.001 63.15-12.542 86.351-35.428zm278.629-344.69c0-7.602 0-30.734-46.314-89.534-8.183-10.389-20.461-16.348-33.686-16.348s-25.503 5.959-33.686 16.348c-46.314 58.8-46.314 81.932-46.314 89.534 0 44.178 35.888 80.118 80 80.118s80-35.94 80-80.118zm-77.738-64.784c29.79 37.82 37.738 58.518 37.738 64.784 0 22.121-17.944 40.118-40 40.118s-40-17.997-40-40.118c0-6.267 7.948-26.964 37.738-64.784.574-.729 1.335-1.098 2.262-1.098s1.689.369 2.262 1.098zm101.738 324.901c0-16.371-7.501-36.938-22.932-62.878-10.228-17.192-23.754-36.479-40.204-57.324-.001 0-.001 0-.001 0-9.929-12.581-24.823-19.797-40.863-19.797s-30.934 7.216-40.864 19.797c-16.45 20.845-29.977 40.132-40.204 57.324-15.431 25.94-22.932 46.507-22.932 62.878 0 57.347 46.655 104.001 104 104.001s104-46.654 104-104.001zm-94.535-95.421c40.209 50.949 54.535 82.699 54.535 95.421 0 35.29-28.71 64.001-64 64.001s-64-28.711-64-64.001c0-12.723 14.326-44.472 54.535-95.421 3.145-3.983 7.28-4.578 9.465-4.578s6.321.595 9.465 4.578zm-319.465 92.422c0-13.807 11.193-25 25-25s25 11.193 25 25-11.193 25-25 25-25-11.193-25-25zm45-85v-123c0-11.046-8.954-20-20-20s-20 8.954-20 20v123c0 11.046 8.954 20 20 20s20-8.954 20-20z" fill="#ffffff" data-original="#000000" style=""/></g></svg>
