<?xml version="1.0"?>
<svg xmlns="http://www.w3.org/2000/svg" xmlns:xlink="http://www.w3.org/1999/xlink" xmlns:svgjs="http://svgjs.com/svgjs" version="1.1" width="512" height="512" x="0" y="0" viewBox="0 0 512 512" style="enable-background:new 0 0 512 512" xml:space="preserve" class=""><g>
<g xmlns="http://www.w3.org/2000/svg">
	<g>
		<path d="M478.944,219.488c-0.416-4.48-2.72-8.512-6.336-11.2c-3.616-2.688-8.096-3.712-12.544-2.88    C450.784,207.168,441.6,208,432,208c-79.392,0-144-64.608-144-144c0-9.504,0.832-18.688,2.592-28.128    c0.832-4.384-0.224-8.928-2.912-12.512s-6.752-5.888-11.2-6.336C269.536,16.352,262.944,16,256,16C132.48,16,32,116.48,32,240    c0,42.624,12.128,84.32,35.136,120.576c3.04,4.8,8.224,7.424,13.536,7.424c2.912,0,5.888-0.8,8.512-2.528    c7.488-4.704,9.696-14.592,4.96-22.048C74.432,312.32,64,276.576,64,240c0-105.888,86.112-192,192-192c0.224,0,0.48,0,0.672,0    C256.224,53.312,256,58.624,256,64c0,97.056,78.976,176,176,176c5.408,0,10.72-0.224,16-0.672c0,0.224,0,0.448,0,0.672    c0,36.544-10.432,72.32-30.144,103.456c-4.736,7.456-2.496,17.344,4.96,22.08c7.456,4.64,17.344,2.528,22.08-4.96    C467.872,324.32,480,282.624,480,240C480,233.024,479.648,226.432,478.944,219.488z" fill="#ffffff" data-original="#000000" style=""/>
	</g>
</g>
<g xmlns="http://www.w3.org/2000/svg">
	<g>
		<path d="M496,400H320c-4.256,0-8.32,1.696-11.328,4.704L256,457.376l-52.672-52.704C200.32,401.696,196.256,400,192,400H16    c-8.832,0-16,7.168-16,16c0,8.832,7.168,16,16,16h169.376l59.296,59.328C247.808,494.432,251.904,496,256,496    s8.192-1.568,11.296-4.672L326.624,432H496c8.832,0,16-7.168,16-16C512,407.168,504.832,400,496,400z" fill="#ffffff" data-original="#000000" style=""/>
	</g>
</g>
<g xmlns="http://www.w3.org/2000/svg">
</g>
<g xmlns="http://www.w3.org/2000/svg">
</g>
<g xmlns="http://www.w3.org/2000/svg">
</g>
<g xmlns="http://www.w3.org/2000/svg">
</g>
<g xmlns="http://www.w3.org/2000/svg">
</g>
<g xmlns="http://www.w3.org/2000/svg">
</g>
<g xmlns="http://www.w3.org/2000/svg">
</g>
<g xmlns="http://www.w3.org/2000/svg">
</g>
<g xmlns="http://www.w3.org/2000/svg">
</g>
<g xmlns="http://www.w3.org/2000/svg">
</g>
<g xmlns="http://www.w3.org/2000/svg">
</g>
<g xmlns="http://www.w3.org/2000/svg">
</g>
<g xmlns="http://www.w3.org/2000/svg">
</g>
<g xmlns="http://www.w3.org/2000/svg">
</g>
<g xmlns="http://www.w3.org/2000/svg">
</g>
</g></svg>
