<?xml version="1.0"?>
<svg xmlns="http://www.w3.org/2000/svg" xmlns:xlink="http://www.w3.org/1999/xlink" xmlns:svgjs="http://svgjs.com/svgjs" version="1.1" width="512" height="512" x="0" y="0" viewBox="0 0 512 512" style="enable-background:new 0 0 512 512" xml:space="preserve" class=""><g transform="matrix(1,0,0,1,0,0)">
<g xmlns="http://www.w3.org/2000/svg">
	<g>
		<path d="M478.944,251.488c-0.416-4.48-2.72-8.512-6.336-11.2c-3.616-2.688-8.096-3.712-12.544-2.88    C450.784,239.168,441.6,240,432,240c-79.392,0-144-64.608-144-144c0-9.504,0.832-18.688,2.592-28.128    c0.832-4.384-0.224-8.928-2.912-12.512s-6.752-5.888-11.2-6.336C269.536,48.352,262.944,48,256,48C132.48,48,32,148.48,32,272    c0,42.624,12.128,84.32,35.136,120.576c3.04,4.8,8.224,7.424,13.536,7.424c2.912,0,5.888-0.8,8.512-2.528    c7.488-4.704,9.696-14.592,4.96-22.048C74.432,344.32,64,308.576,64,272c0-105.888,86.112-192,192-192c0.224,0,0.48,0,0.672,0    C256.224,85.312,256,90.624,256,96c0,97.056,78.976,176,176,176c5.408,0,10.72-0.224,16-0.672c0,0.224,0,0.448,0,0.672    c0,36.544-10.432,72.32-30.144,103.456c-4.736,7.456-2.496,17.344,4.96,22.08c7.456,4.64,17.344,2.528,22.08-4.96    C467.872,356.32,480,314.624,480,272C480,265.024,479.648,258.432,478.944,251.488z" fill="#ffffff" data-original="#000000" style="" class=""/>
	</g>
</g>
<g xmlns="http://www.w3.org/2000/svg">
	<g>
		<path d="M496,432H326.624l-59.296-59.328c-6.24-6.24-16.384-6.24-22.624,0L185.376,432H16c-8.832,0-16,7.168-16,16    c0,8.832,7.168,16,16,16h176c4.256,0,8.32-1.696,11.328-4.704L256,406.624l52.672,52.704C311.68,462.304,315.744,464,320,464h176    c8.832,0,16-7.168,16-16C512,439.168,504.832,432,496,432z" fill="#ffffff" data-original="#000000" style="" class=""/>
	</g>
</g>
<g xmlns="http://www.w3.org/2000/svg">
</g>
<g xmlns="http://www.w3.org/2000/svg">
</g>
<g xmlns="http://www.w3.org/2000/svg">
</g>
<g xmlns="http://www.w3.org/2000/svg">
</g>
<g xmlns="http://www.w3.org/2000/svg">
</g>
<g xmlns="http://www.w3.org/2000/svg">
</g>
<g xmlns="http://www.w3.org/2000/svg">
</g>
<g xmlns="http://www.w3.org/2000/svg">
</g>
<g xmlns="http://www.w3.org/2000/svg">
</g>
<g xmlns="http://www.w3.org/2000/svg">
</g>
<g xmlns="http://www.w3.org/2000/svg">
</g>
<g xmlns="http://www.w3.org/2000/svg">
</g>
<g xmlns="http://www.w3.org/2000/svg">
</g>
<g xmlns="http://www.w3.org/2000/svg">
</g>
<g xmlns="http://www.w3.org/2000/svg">
</g>
</g></svg>
