<?xml version="1.0"?>
<svg xmlns="http://www.w3.org/2000/svg" xmlns:xlink="http://www.w3.org/1999/xlink" xmlns:svgjs="http://svgjs.com/svgjs" version="1.1" width="512" height="512" x="0" y="0" viewBox="0 0 108.226 108.227" style="enable-background:new 0 0 512 512" xml:space="preserve"><g transform="matrix(1,0,0,1,0,7.105427357601002e-15)">
<g xmlns="http://www.w3.org/2000/svg">
	<path d="M81.17,108.227c-14.888,0-27.63-5.284-38.223-15.856C32.354,81.797,27.056,69.045,27.056,54.114   c0-14.889,5.297-27.629,15.891-38.224C53.541,5.298,66.283,0,81.17,0C67.617,0,55.992,5.298,46.295,15.89   c-9.698,10.596-14.547,23.336-14.547,38.224c0,14.931,4.85,27.683,14.547,38.255C55.992,102.942,67.617,108.227,81.17,108.227z" fill="#ffffff" data-original="#000000" style=""/>
</g>
<g xmlns="http://www.w3.org/2000/svg">
</g>
<g xmlns="http://www.w3.org/2000/svg">
</g>
<g xmlns="http://www.w3.org/2000/svg">
</g>
<g xmlns="http://www.w3.org/2000/svg">
</g>
<g xmlns="http://www.w3.org/2000/svg">
</g>
<g xmlns="http://www.w3.org/2000/svg">
</g>
<g xmlns="http://www.w3.org/2000/svg">
</g>
<g xmlns="http://www.w3.org/2000/svg">
</g>
<g xmlns="http://www.w3.org/2000/svg">
</g>
<g xmlns="http://www.w3.org/2000/svg">
</g>
<g xmlns="http://www.w3.org/2000/svg">
</g>
<g xmlns="http://www.w3.org/2000/svg">
</g>
<g xmlns="http://www.w3.org/2000/svg">
</g>
<g xmlns="http://www.w3.org/2000/svg">
</g>
<g xmlns="http://www.w3.org/2000/svg">
</g>
</g></svg>
