<?xml version="1.0"?>
<svg xmlns="http://www.w3.org/2000/svg" xmlns:xlink="http://www.w3.org/1999/xlink" xmlns:svgjs="http://svgjs.com/svgjs" version="1.1" width="512" height="512" x="0" y="0" viewBox="0 0 512 512" style="enable-background:new 0 0 512 512" xml:space="preserve"><g>
<g xmlns="http://www.w3.org/2000/svg">
	<g>
		<path d="M496,384H320c-4.256,0-8.32,1.696-11.328,4.704L256,441.376l-52.672-52.704C200.32,385.696,196.256,384,192,384H16    c-8.832,0-16,7.168-16,16c0,8.832,7.168,16,16,16h169.376l59.296,59.328C247.808,478.432,251.904,480,256,480    s8.192-1.568,11.296-4.672L326.624,416H496c8.832,0,16-7.168,16-16C512,391.168,504.832,384,496,384z" fill="#ffffff" data-original="#000000" style=""/>
	</g>
</g>
<g xmlns="http://www.w3.org/2000/svg">
	<g>
		<path d="M256,128c-88.224,0-160,71.776-160,160c0,18.464,3.136,36.448,9.28,53.44c3.008,8.352,12.256,12.672,20.48,9.6    c8.288-3.008,12.608-12.16,9.6-20.48C130.464,317.056,128,302.752,128,288c0-70.592,57.408-128,128-128s128,57.408,128,128    c0,14.752-2.464,29.056-7.36,42.56c-3.04,8.32,1.28,17.472,9.6,20.48c1.792,0.64,3.616,0.96,5.44,0.96    c6.528,0,12.704-4.032,15.04-10.56c6.144-16.992,9.28-34.976,9.28-53.44C416,199.776,344.224,128,256,128z" fill="#ffffff" data-original="#000000" style=""/>
	</g>
</g>
<g xmlns="http://www.w3.org/2000/svg">
	<g>
		<path d="M256,32c-8.832,0-16,7.168-16,16v32c0,8.832,7.168,16,16,16c8.832,0,16-7.168,16-16V48C272,39.168,264.832,32,256,32z" fill="#ffffff" data-original="#000000" style=""/>
	</g>
</g>
<g xmlns="http://www.w3.org/2000/svg">
	<g>
		<path d="M48,272H16c-8.832,0-16,7.168-16,16c0,8.832,7.168,16,16,16h32c8.832,0,16-7.168,16-16C64,279.168,56.832,272,48,272z" fill="#ffffff" data-original="#000000" style=""/>
	</g>
</g>
<g xmlns="http://www.w3.org/2000/svg">
	<g>
		<path d="M496,272h-32c-8.832,0-16,7.168-16,16c0,8.832,7.168,16,16,16h32c8.832,0,16-7.168,16-16C512,279.168,504.832,272,496,272    z" fill="#ffffff" data-original="#000000" style=""/>
	</g>
</g>
<g xmlns="http://www.w3.org/2000/svg">
	<g>
		<path d="M120.224,129.6L97.6,106.976c-6.24-6.24-16.384-6.24-22.624,0s-6.24,16.384,0,22.624L97.6,152.256    c3.136,3.104,7.232,4.672,11.328,4.672c4.096,0,8.192-1.568,11.296-4.704C126.464,145.984,126.464,135.84,120.224,129.6z" fill="#ffffff" data-original="#000000" style=""/>
	</g>
</g>
<g xmlns="http://www.w3.org/2000/svg">
	<g>
		<path d="M436.992,107.008c-6.24-6.24-16.384-6.24-22.624,0l-22.624,22.624c-6.24,6.24-6.24,16.384,0,22.624    c3.136,3.104,7.232,4.672,11.328,4.672s8.192-1.568,11.296-4.672l22.624-22.624C443.232,123.392,443.232,113.248,436.992,107.008z    " fill="#ffffff" data-original="#000000" style=""/>
	</g>
</g>
<g xmlns="http://www.w3.org/2000/svg">
</g>
<g xmlns="http://www.w3.org/2000/svg">
</g>
<g xmlns="http://www.w3.org/2000/svg">
</g>
<g xmlns="http://www.w3.org/2000/svg">
</g>
<g xmlns="http://www.w3.org/2000/svg">
</g>
<g xmlns="http://www.w3.org/2000/svg">
</g>
<g xmlns="http://www.w3.org/2000/svg">
</g>
<g xmlns="http://www.w3.org/2000/svg">
</g>
<g xmlns="http://www.w3.org/2000/svg">
</g>
<g xmlns="http://www.w3.org/2000/svg">
</g>
<g xmlns="http://www.w3.org/2000/svg">
</g>
<g xmlns="http://www.w3.org/2000/svg">
</g>
<g xmlns="http://www.w3.org/2000/svg">
</g>
<g xmlns="http://www.w3.org/2000/svg">
</g>
<g xmlns="http://www.w3.org/2000/svg">
</g>
</g></svg>
