<?xml version="1.0"?>
<svg xmlns="http://www.w3.org/2000/svg" xmlns:xlink="http://www.w3.org/1999/xlink" xmlns:svgjs="http://svgjs.com/svgjs" version="1.1" width="512" height="512" x="0" y="0" viewBox="0 0 512.003 512.003" style="enable-background:new 0 0 512 512" xml:space="preserve" class=""><g><path xmlns="http://www.w3.org/2000/svg" d="m40 275.999h-20c-11.046 0-20-8.954-20-20s8.954-20 20-20h20c11.046 0 20 8.954 20 20s-8.954 20-20 20zm345.833-193.779 10.442-17.058c5.767-9.421 2.805-21.733-6.615-27.5-9.421-5.768-21.733-2.806-27.5 6.615l-10.442 17.058c-5.767 9.421-2.805 21.733 6.615 27.5 3.259 1.995 6.863 2.945 10.423 2.945 6.732 0 13.305-3.399 17.077-9.56zm-227.845 4.045c9.565-5.523 12.842-17.755 7.319-27.321l-10.001-17.32c-5.524-9.566-17.756-12.842-27.321-7.319s-12.842 17.755-7.319 27.321l10.001 17.32c3.705 6.416 10.427 10.002 17.338 10.002 3.394 0 6.833-.865 9.983-2.683zm-72.898 73.56c5.419-9.625 2.01-21.821-7.614-27.24l-17.427-9.813c-9.625-5.418-21.82-2.01-27.24 7.614-5.419 9.625-2.01 21.821 7.614 27.24l17.427 9.813c3.103 1.747 6.471 2.576 9.794 2.576 6.988.001 13.773-3.667 17.446-10.19zm187.91-119.817v-19.999c0-11.046-8.954-20-20-20s-20 8.954-20 20v19.999c0 11.046 8.954 20 20 20s20-8.954 20-20zm-213.772 347.996 17.487-9.705c9.658-5.36 13.143-17.534 7.782-27.192-5.36-9.658-17.534-13.142-27.192-7.782l-17.487 9.705c-9.658 5.36-13.143 17.534-7.782 27.192 3.654 6.584 10.474 10.298 17.505 10.298 3.283 0 6.613-.81 9.687-2.516zm330.432 86.337c9.42-5.767 12.382-18.079 6.615-27.5l-10.442-17.058c-5.767-9.42-18.08-12.381-27.5-6.615-9.42 5.767-12.382 18.079-6.615 27.5l10.442 17.058c3.772 6.162 10.345 9.561 17.077 9.561 3.559-.001 7.165-.952 10.423-2.946zm-234.354-3.962 10.001-17.32c5.523-9.565 2.247-21.797-7.319-27.321-9.565-5.524-21.798-2.247-27.321 7.319l-10.001 17.32c-5.523 9.565-2.247 21.797 7.319 27.321 3.15 1.819 6.588 2.684 9.982 2.684 6.912-.001 13.635-3.588 17.339-10.003zm117.694 21.615v-19.999c0-11.046-8.954-20-20-20s-20 8.954-20 20v19.999c0 11.046 8.954 20 20 20s20-8.954 20-20zm110.441-131.184c7.021-8.528 5.798-21.132-2.729-28.152s-21.132-5.798-28.152 2.729c-23.864 28.989-59.058 45.614-96.559 45.614-68.924 0-124.998-56.074-124.998-125.002 0-68.924 56.074-124.998 124.998-124.998 20.438 0 40.704 5.034 58.607 14.559 9.751 5.186 21.863 1.488 27.05-8.264 5.188-9.751 1.488-21.862-8.264-27.05-23.667-12.59-50.429-19.245-77.394-19.245-90.98 0-164.998 74.018-164.998 165.002 0 90.98 74.018 164.998 164.998 164.998 49.5 0 95.951-21.939 127.441-60.191zm-96.441-28.735c-35.841 0-65-28.998-65-64.64v-70.433c0-11.046 8.954-20 20-20s20 8.954 20 20v70.433c0 13.586 11.215 24.64 25 24.64s25-11.054 25-24.64v-70.433c0-11.046 8.954-20 20-20s20 8.954 20 20v70.433c0 35.642-29.159 64.64-65 64.64zm160.566-.077c17.204-.196 32.255-10.016 39.28-25.628 9.298-20.663 17.691-56.494 24.946-106.497 1.586-10.931-5.99-21.079-16.921-22.665-10.931-1.582-21.079 5.991-22.665 16.921-8.37 57.693-16.495 83.954-21.837 95.826-.603 1.339-1.699 2.028-3.259 2.045-2.271.057-2.942-1.406-3.167-1.877-10.922-22.864-19.538-74.409-23.218-96.419-1.821-10.895-12.126-18.249-23.023-16.429-10.895 1.821-18.25 12.129-16.429 23.023 6.869 41.091 14.843 82.501 26.576 107.065 7.277 15.234 22.261 24.637 39.194 24.637.175.001.35 0 .523-.002z" fill="#ffffff" data-original="#000000" style=""/></g></svg>
